<svg width="50" height="50" fill="none" xmlns="http://www.w3.org/2000/svg">
  <path d="M11.081 30.216l-1.74 6.497-6.362.134A24.888 24.888 0 010 25c0-4.146 1.008-8.055 2.795-11.497h.002L8.46 14.54l2.48 5.63A14.862 14.862 0 0010.14 25c0 1.835.332 3.593.942 5.216zM49.563 20.33C49.85 21.842 50 23.404 50 25c0 1.79-.188 3.536-.547 5.22a24.995 24.995 0 01-8.802 14.276l-.001-.002-7.133-.363-1.01-6.303a14.9 14.9 0 006.41-7.608H25.55v-9.89h24.013z" fill="#000"/>
  <path d="M40.65 44.495h.001A24.894 24.894 0 0125 50c-9.52 0-17.798-5.321-22.02-13.152l8.101-6.632C13.192 35.85 18.628 39.86 25 39.86c2.739 0 5.305-.74 7.507-2.033l8.143 6.666zM40.957 5.755l-8.099 6.63A14.778 14.778 0 0025 10.14c-6.517 0-12.054 4.195-14.06 10.031l-8.143-6.667h-.002C6.956 5.48 15.338 0 25 0c6.066 0 11.628 2.16 15.957 5.755z" fill="#000"/>
</svg>