<svg width="77" height="29" viewBox="0 0 77 29" fill="none" xmlns="http://www.w3.org/2000/svg">
<path d="M23.6932 23.3068C25.9773 23.3068 27.1705 22.0795 27.5795 21.2273H27.6818V23H29.6932V14.375C29.6932 10.2159 26.5227 9.73864 24.8523 9.73864C22.875 9.73864 20.625 10.4205 19.6023 12.8068L21.5114 13.4886C21.9545 12.5341 23.0028 11.5114 24.9205 11.5114C26.7699 11.5114 27.6818 12.4915 27.6818 14.1705V14.2386C27.6818 15.2102 26.6932 15.125 24.3068 15.4318C21.8778 15.7472 19.2273 16.2841 19.2273 19.2841C19.2273 21.8409 21.2045 23.3068 23.6932 23.3068ZM24 21.5C22.3977 21.5 21.2386 20.7841 21.2386 19.3864C21.2386 17.8523 22.6364 17.375 24.2045 17.1705C25.0568 17.0682 27.3409 16.8295 27.6818 16.4205V18.2614C27.6818 19.8977 26.3864 21.5 24 21.5ZM35.3757 5.54545H33.3643V23H35.3757V5.54545ZM39.0597 23H41.071V9.90909H39.0597V23ZM40.0824 7.72727C40.8665 7.72727 41.5142 7.11364 41.5142 6.36364C41.5142 5.61364 40.8665 5 40.0824 5C39.2983 5 38.6506 5.61364 38.6506 6.36364C38.6506 7.11364 39.2983 7.72727 40.0824 7.72727ZM55.4595 9.90909H53.2777L49.6641 20.3409H49.5277L45.9141 9.90909H43.7322L48.5732 23H50.6186L55.4595 9.90909ZM58.1143 23H60.1257V9.90909H58.1143V23ZM59.1371 7.72727C59.9212 7.72727 60.5689 7.11364 60.5689 6.36364C60.5689 5.61364 59.9212 5 59.1371 5C58.353 5 57.7053 5.61364 57.7053 6.36364C57.7053 7.11364 58.353 7.72727 59.1371 7.72727ZM69.1278 23.2727C72.6733 23.2727 75.0597 20.5795 75.0597 16.5227C75.0597 12.4318 72.6733 9.73864 69.1278 9.73864C65.5824 9.73864 63.196 12.4318 63.196 16.5227C63.196 20.5795 65.5824 23.2727 69.1278 23.2727ZM69.1278 21.4659C66.4347 21.4659 65.2074 19.1477 65.2074 16.5227C65.2074 13.8977 66.4347 11.5455 69.1278 11.5455C71.821 11.5455 73.0483 13.8977 73.0483 16.5227C73.0483 19.1477 71.821 21.4659 69.1278 21.4659Z" fill="#282828"/>
<path d="M-5.12615e-07 10L-4.17245e-07 12.1818L10.4318 15.7955L10.4318 15.9318L-9.53703e-08 19.5455L0 21.7273L13.0909 16.8864L13.0909 14.8409L-5.12615e-07 10Z" fill="#282828"/>
</svg>
